<svg width="302" height="202" viewBox="0 0 302 202" fill="none" xmlns="http://www.w3.org/2000/svg">
<g opacity="0.1">
<path d="M302 1.5474V2.41624H300.047V3.71951H298.746V2.41624H296.793V1.5474H298.746V0.244141H300.047V1.5474H302Z" fill="#295271"/>
<path d="M302 11.9734V12.8423H300.047V14.1455H298.746V12.8423H296.793V11.9734H298.746V10.6702H300.047V11.9734H302Z" fill="#295271"/>
<path d="M302 22.3997V23.2685H300.047V24.5718H298.746V23.2685H296.793V22.3997H298.746V21.0964H300.047V22.3997H302Z" fill="#295271"/>
<path d="M302 32.8257V33.6946H300.047V34.9978H298.746V33.6946H296.793V32.8257H298.746V31.5225H300.047V32.8257H302Z" fill="#295271"/>
<path d="M302 43.2518V44.1206H300.047V45.4239H298.746V44.1206H296.793V43.2518H298.746V41.9485H300.047V43.2518H302Z" fill="#295271"/>
<path d="M302 53.6778V54.5466H300.047V55.8499H298.746V54.5466H296.793V53.6778H298.746V52.3745H300.047V53.6778H302Z" fill="#295271"/>
<path d="M302 64.104V64.9729H300.047V66.2761H298.746V64.9729H296.793V64.104H298.746V62.8008H300.047V64.104H302Z" fill="#295271"/>
<path d="M302 74.5301V75.3989H300.047V76.7022H298.746V75.3989H296.793V74.5301H298.746V73.2268H300.047V74.5301H302Z" fill="#295271"/>
<path d="M302 84.9561V85.8249H300.047V87.1282H298.746V85.8249H296.793V84.9561H298.746V83.6528H300.047V84.9561H302Z" fill="#295271"/>
<path d="M302 95.3824V96.2512H300.047V97.5545H298.746V96.2512H296.793V95.3824H298.746V94.0791H300.047V95.3824H302Z" fill="#295271"/>
<path d="M302 105.808V106.677H300.047V107.981H298.746V106.677H296.793V105.808H298.746V104.505H300.047V105.808H302Z" fill="#295271"/>
<path d="M302 116.234V117.103H300.047V118.407H298.746V117.103H296.793V116.234H298.746V114.931H300.047V116.234H302Z" fill="#295271"/>
<path d="M302 126.66V127.529H300.047V128.833H298.746V127.529H296.793V126.66H298.746V125.357H300.047V126.66H302Z" fill="#295271"/>
<path d="M302 137.087V137.956H300.047V139.259H298.746V137.956H296.793V137.087H298.746V135.783H300.047V137.087H302Z" fill="#295271"/>
<path d="M302 147.513V148.382H300.047V149.685H298.746V148.382H296.793V147.513H298.746V146.209H300.047V147.513H302Z" fill="#295271"/>
<path d="M302 157.939V158.808H300.047V160.111H298.746V158.808H296.793V157.939H298.746V156.635H300.047V157.939H302Z" fill="#295271"/>
<path d="M302 168.365V169.234H300.047V170.537H298.746V169.234H296.793V168.365H298.746V167.062H300.047V168.365H302Z" fill="#295271"/>
<path d="M302 178.791V179.66H300.047V180.963H298.746V179.66H296.793V178.791H298.746V177.488H300.047V178.791H302Z" fill="#295271"/>
<path d="M302 189.217V190.086H300.047V191.389H298.746V190.086H296.793V189.217H298.746V187.914H300.047V189.217H302Z" fill="#295271"/>
<path d="M302 199.643V200.512H300.047V201.815H298.746V200.512H296.793V199.643H298.746V198.34H300.047V199.643H302Z" fill="#295271"/>
<path d="M286.38 1.5474V2.41624H284.427V3.71951H283.125V2.41624H281.173V1.5474H283.125V0.244141H284.427V1.5474H286.38Z" fill="#295271"/>
<path d="M286.38 11.9734V12.8423H284.427V14.1455H283.125V12.8423H281.173V11.9734H283.125V10.6702H284.427V11.9734H286.38Z" fill="#295271"/>
<path d="M286.38 22.3997V23.2685H284.427V24.5718H283.125V23.2685H281.173V22.3997H283.125V21.0964H284.427V22.3997H286.38Z" fill="#295271"/>
<path d="M286.38 32.8257V33.6946H284.427V34.9978H283.125V33.6946H281.173V32.8257H283.125V31.5225H284.427V32.8257H286.38Z" fill="#295271"/>
<path d="M286.38 43.2518V44.1206H284.427V45.4239H283.125V44.1206H281.173V43.2518H283.125V41.9485H284.427V43.2518H286.38Z" fill="#295271"/>
<path d="M286.38 53.6778V54.5466H284.427V55.8499H283.125V54.5466H281.173V53.6778H283.125V52.3745H284.427V53.6778H286.38Z" fill="#295271"/>
<path d="M286.38 64.104V64.9729H284.427V66.2761H283.125V64.9729H281.173V64.104H283.125V62.8008H284.427V64.104H286.38Z" fill="#295271"/>
<path d="M286.38 74.5301V75.3989H284.427V76.7022H283.125V75.3989H281.173V74.5301H283.125V73.2268H284.427V74.5301H286.38Z" fill="#295271"/>
<path d="M286.38 84.9561V85.8249H284.427V87.1282H283.125V85.8249H281.173V84.9561H283.125V83.6528H284.427V84.9561H286.38Z" fill="#295271"/>
<path d="M286.38 95.3824V96.2512H284.427V97.5545H283.125V96.2512H281.173V95.3824H283.125V94.0791H284.427V95.3824H286.38Z" fill="#295271"/>
<path d="M286.38 105.808V106.677H284.427V107.981H283.125V106.677H281.173V105.808H283.125V104.505H284.427V105.808H286.38Z" fill="#295271"/>
<path d="M286.38 116.234V117.103H284.427V118.407H283.125V117.103H281.173V116.234H283.125V114.931H284.427V116.234H286.38Z" fill="#295271"/>
<path d="M286.38 126.66V127.529H284.427V128.833H283.125V127.529H281.173V126.66H283.125V125.357H284.427V126.66H286.38Z" fill="#295271"/>
<path d="M286.38 137.087V137.956H284.427V139.259H283.125V137.956H281.173V137.087H283.125V135.783H284.427V137.087H286.38Z" fill="#295271"/>
<path d="M286.38 147.513V148.382H284.427V149.685H283.125V148.382H281.173V147.513H283.125V146.209H284.427V147.513H286.38Z" fill="#295271"/>
<path d="M286.38 157.939V158.808H284.427V160.111H283.125V158.808H281.173V157.939H283.125V156.635H284.427V157.939H286.38Z" fill="#295271"/>
<path d="M286.38 168.365V169.234H284.427V170.537H283.125V169.234H281.173V168.365H283.125V167.062H284.427V168.365H286.38Z" fill="#295271"/>
<path d="M286.38 178.791V179.66H284.427V180.963H283.125V179.66H281.173V178.791H283.125V177.488H284.427V178.791H286.38Z" fill="#295271"/>
<path d="M286.38 189.217V190.086H284.427V191.389H283.125V190.086H281.173V189.217H283.125V187.914H284.427V189.217H286.38Z" fill="#295271"/>
<path d="M286.38 199.643V200.512H284.427V201.815H283.125V200.512H281.173V199.643H283.125V198.34H284.427V199.643H286.38Z" fill="#295271"/>
<path d="M270.759 1.5474V2.41624H268.806V3.71951H267.504V2.41624H265.552V1.5474H267.504V0.244141H268.806V1.5474H270.759Z" fill="#295271"/>
<path d="M270.759 11.9734V12.8423H268.806V14.1455H267.504V12.8423H265.552V11.9734H267.504V10.6702H268.806V11.9734H270.759Z" fill="#295271"/>
<path d="M270.759 22.3997V23.2685H268.806V24.5718H267.504V23.2685H265.552V22.3997H267.504V21.0964H268.806V22.3997H270.759Z" fill="#295271"/>
<path d="M270.759 32.8257V33.6946H268.806V34.9978H267.504V33.6946H265.552V32.8257H267.504V31.5225H268.806V32.8257H270.759Z" fill="#295271"/>
<path d="M270.759 43.2518V44.1206H268.806V45.4239H267.504V44.1206H265.552V43.2518H267.504V41.9485H268.806V43.2518H270.759Z" fill="#295271"/>
<path d="M270.759 53.6778V54.5466H268.806V55.8499H267.504V54.5466H265.552V53.6778H267.504V52.3745H268.806V53.6778H270.759Z" fill="#295271"/>
<path d="M270.759 64.104V64.9729H268.806V66.2761H267.504V64.9729H265.552V64.104H267.504V62.8008H268.806V64.104H270.759Z" fill="#295271"/>
<path d="M270.759 74.5301V75.3989H268.806V76.7022H267.504V75.3989H265.552V74.5301H267.504V73.2268H268.806V74.5301H270.759Z" fill="#295271"/>
<path d="M270.759 84.9561V85.8249H268.806V87.1282H267.504V85.8249H265.552V84.9561H267.504V83.6528H268.806V84.9561H270.759Z" fill="#295271"/>
<path d="M270.759 95.3824V96.2512H268.806V97.5545H267.504V96.2512H265.552V95.3824H267.504V94.0791H268.806V95.3824H270.759Z" fill="#295271"/>
<path d="M270.759 105.808V106.677H268.806V107.981H267.504V106.677H265.552V105.808H267.504V104.505H268.806V105.808H270.759Z" fill="#295271"/>
<path d="M270.759 116.234V117.103H268.806V118.407H267.504V117.103H265.552V116.234H267.504V114.931H268.806V116.234H270.759Z" fill="#295271"/>
<path d="M270.759 126.66V127.529H268.806V128.833H267.504V127.529H265.552V126.66H267.504V125.357H268.806V126.66H270.759Z" fill="#295271"/>
<path d="M270.759 137.087V137.956H268.806V139.259H267.504V137.956H265.552V137.087H267.504V135.783H268.806V137.087H270.759Z" fill="#295271"/>
<path d="M270.759 147.513V148.382H268.806V149.685H267.504V148.382H265.552V147.513H267.504V146.209H268.806V147.513H270.759Z" fill="#295271"/>
<path d="M270.759 157.939V158.808H268.806V160.111H267.504V158.808H265.552V157.939H267.504V156.635H268.806V157.939H270.759Z" fill="#295271"/>
<path d="M270.759 168.365V169.234H268.806V170.537H267.504V169.234H265.552V168.365H267.504V167.062H268.806V168.365H270.759Z" fill="#295271"/>
<path d="M270.759 178.791V179.66H268.806V180.963H267.504V179.66H265.552V178.791H267.504V177.488H268.806V178.791H270.759Z" fill="#295271"/>
<path d="M270.759 189.217V190.086H268.806V191.389H267.504V190.086H265.552V189.217H267.504V187.914H268.806V189.217H270.759Z" fill="#295271"/>
<path d="M270.759 199.643V200.512H268.806V201.815H267.504V200.512H265.552V199.643H267.504V198.34H268.806V199.643H270.759Z" fill="#295271"/>
<path d="M255.138 1.5474V2.41624H253.185V3.71951H251.884V2.41624H249.931V1.5474H251.884V0.244141H253.185V1.5474H255.138Z" fill="#295271"/>
<path d="M255.138 11.9734V12.8423H253.185V14.1455H251.884V12.8423H249.931V11.9734H251.884V10.6702H253.185V11.9734H255.138Z" fill="#295271"/>
<path d="M255.138 22.3997V23.2685H253.185V24.5718H251.884V23.2685H249.931V22.3997H251.884V21.0964H253.185V22.3997H255.138Z" fill="#295271"/>
<path d="M255.138 32.8257V33.6946H253.185V34.9978H251.884V33.6946H249.931V32.8257H251.884V31.5225H253.185V32.8257H255.138Z" fill="#295271"/>
<path d="M255.138 43.2518V44.1206H253.185V45.4239H251.884V44.1206H249.931V43.2518H251.884V41.9485H253.185V43.2518H255.138Z" fill="#295271"/>
<path d="M255.138 53.6778V54.5466H253.185V55.8499H251.884V54.5466H249.931V53.6778H251.884V52.3745H253.185V53.6778H255.138Z" fill="#295271"/>
<path d="M255.138 64.104V64.9729H253.185V66.2761H251.884V64.9729H249.931V64.104H251.884V62.8008H253.185V64.104H255.138Z" fill="#295271"/>
<path d="M255.138 74.5301V75.3989H253.185V76.7022H251.884V75.3989H249.931V74.5301H251.884V73.2268H253.185V74.5301H255.138Z" fill="#295271"/>
<path d="M255.138 84.9561V85.8249H253.185V87.1282H251.884V85.8249H249.931V84.9561H251.884V83.6528H253.185V84.9561H255.138Z" fill="#295271"/>
<path d="M255.138 95.3824V96.2512H253.185V97.5545H251.884V96.2512H249.931V95.3824H251.884V94.0791H253.185V95.3824H255.138Z" fill="#295271"/>
<path d="M255.138 105.808V106.677H253.185V107.981H251.884V106.677H249.931V105.808H251.884V104.505H253.185V105.808H255.138Z" fill="#295271"/>
<path d="M255.138 116.234V117.103H253.185V118.407H251.884V117.103H249.931V116.234H251.884V114.931H253.185V116.234H255.138Z" fill="#295271"/>
<path d="M255.138 126.66V127.529H253.185V128.833H251.884V127.529H249.931V126.66H251.884V125.357H253.185V126.66H255.138Z" fill="#295271"/>
<path d="M255.138 137.087V137.956H253.185V139.259H251.884V137.956H249.931V137.087H251.884V135.783H253.185V137.087H255.138Z" fill="#295271"/>
<path d="M255.138 147.513V148.382H253.185V149.685H251.884V148.382H249.931V147.513H251.884V146.209H253.185V147.513H255.138Z" fill="#295271"/>
<path d="M255.138 157.939V158.808H253.185V160.111H251.884V158.808H249.931V157.939H251.884V156.635H253.185V157.939H255.138Z" fill="#295271"/>
<path d="M255.138 168.365V169.234H253.185V170.537H251.884V169.234H249.931V168.365H251.884V167.062H253.185V168.365H255.138Z" fill="#295271"/>
<path d="M255.138 178.791V179.66H253.185V180.963H251.884V179.66H249.931V178.791H251.884V177.488H253.185V178.791H255.138Z" fill="#295271"/>
<path d="M255.138 189.217V190.086H253.185V191.389H251.884V190.086H249.931V189.217H251.884V187.914H253.185V189.217H255.138Z" fill="#295271"/>
<path d="M255.138 199.643V200.512H253.185V201.815H251.884V200.512H249.931V199.643H251.884V198.34H253.185V199.643H255.138Z" fill="#295271"/>
<path d="M239.518 1.5474V2.41624H237.565V3.71951H236.263V2.41624H234.311V1.5474H236.263V0.244141H237.565V1.5474H239.518Z" fill="#295271"/>
<path d="M239.518 11.9734V12.8423H237.565V14.1455H236.263V12.8423H234.311V11.9734H236.263V10.6702H237.565V11.9734H239.518Z" fill="#295271"/>
<path d="M239.518 22.3997V23.2685H237.565V24.5718H236.263V23.2685H234.311V22.3997H236.263V21.0964H237.565V22.3997H239.518Z" fill="#295271"/>
<path d="M239.518 32.8257V33.6946H237.565V34.9978H236.263V33.6946H234.311V32.8257H236.263V31.5225H237.565V32.8257H239.518Z" fill="#295271"/>
<path d="M239.518 43.2518V44.1206H237.565V45.4239H236.263V44.1206H234.311V43.2518H236.263V41.9485H237.565V43.2518H239.518Z" fill="#295271"/>
<path d="M239.518 53.6778V54.5466H237.565V55.8499H236.263V54.5466H234.311V53.6778H236.263V52.3745H237.565V53.6778H239.518Z" fill="#295271"/>
<path d="M239.518 64.104V64.9729H237.565V66.2761H236.263V64.9729H234.311V64.104H236.263V62.8008H237.565V64.104H239.518Z" fill="#295271"/>
<path d="M239.518 74.5301V75.3989H237.565V76.7022H236.263V75.3989H234.311V74.5301H236.263V73.2268H237.565V74.5301H239.518Z" fill="#295271"/>
<path d="M239.518 84.9561V85.8249H237.565V87.1282H236.263V85.8249H234.311V84.9561H236.263V83.6528H237.565V84.9561H239.518Z" fill="#295271"/>
<path d="M239.518 95.3824V96.2512H237.565V97.5545H236.263V96.2512H234.311V95.3824H236.263V94.0791H237.565V95.3824H239.518Z" fill="#295271"/>
<path d="M239.518 105.808V106.677H237.565V107.981H236.263V106.677H234.311V105.808H236.263V104.505H237.565V105.808H239.518Z" fill="#295271"/>
<path d="M239.518 116.234V117.103H237.565V118.407H236.263V117.103H234.311V116.234H236.263V114.931H237.565V116.234H239.518Z" fill="#295271"/>
<path d="M239.518 126.66V127.529H237.565V128.833H236.263V127.529H234.311V126.66H236.263V125.357H237.565V126.66H239.518Z" fill="#295271"/>
<path d="M239.518 137.087V137.956H237.565V139.259H236.263V137.956H234.311V137.087H236.263V135.783H237.565V137.087H239.518Z" fill="#295271"/>
<path d="M239.518 147.513V148.382H237.565V149.685H236.263V148.382H234.311V147.513H236.263V146.209H237.565V147.513H239.518Z" fill="#295271"/>
<path d="M239.518 157.939V158.808H237.565V160.111H236.263V158.808H234.311V157.939H236.263V156.635H237.565V157.939H239.518Z" fill="#295271"/>
<path d="M239.518 168.365V169.234H237.565V170.537H236.263V169.234H234.311V168.365H236.263V167.062H237.565V168.365H239.518Z" fill="#295271"/>
<path d="M239.518 178.791V179.66H237.565V180.963H236.263V179.66H234.311V178.791H236.263V177.488H237.565V178.791H239.518Z" fill="#295271"/>
<path d="M239.518 189.217V190.086H237.565V191.389H236.263V190.086H234.311V189.217H236.263V187.914H237.565V189.217H239.518Z" fill="#295271"/>
<path d="M239.518 199.643V200.512H237.565V201.815H236.263V200.512H234.311V199.643H236.263V198.34H237.565V199.643H239.518Z" fill="#295271"/>
<path d="M223.897 1.5474V2.41624H221.944V3.71951H220.642V2.41624H218.69V1.5474H220.642V0.244141H221.944V1.5474H223.897Z" fill="#295271"/>
<path d="M223.897 11.9734V12.8423H221.944V14.1455H220.642V12.8423H218.69V11.9734H220.642V10.6702H221.944V11.9734H223.897Z" fill="#295271"/>
<path d="M223.897 22.3997V23.2685H221.944V24.5718H220.642V23.2685H218.69V22.3997H220.642V21.0964H221.944V22.3997H223.897Z" fill="#295271"/>
<path d="M223.897 32.8257V33.6946H221.944V34.9978H220.642V33.6946H218.69V32.8257H220.642V31.5225H221.944V32.8257H223.897Z" fill="#295271"/>
<path d="M223.897 43.2518V44.1206H221.944V45.4239H220.642V44.1206H218.69V43.2518H220.642V41.9485H221.944V43.2518H223.897Z" fill="#295271"/>
<path d="M223.897 53.6778V54.5466H221.944V55.8499H220.642V54.5466H218.69V53.6778H220.642V52.3745H221.944V53.6778H223.897Z" fill="#295271"/>
<path d="M223.897 64.104V64.9729H221.944V66.2761H220.642V64.9729H218.69V64.104H220.642V62.8008H221.944V64.104H223.897Z" fill="#295271"/>
<path d="M223.897 74.5301V75.3989H221.944V76.7022H220.642V75.3989H218.69V74.5301H220.642V73.2268H221.944V74.5301H223.897Z" fill="#295271"/>
<path d="M223.897 84.9561V85.8249H221.944V87.1282H220.642V85.8249H218.69V84.9561H220.642V83.6528H221.944V84.9561H223.897Z" fill="#295271"/>
<path d="M223.897 95.3824V96.2512H221.944V97.5545H220.642V96.2512H218.69V95.3824H220.642V94.0791H221.944V95.3824H223.897Z" fill="#295271"/>
<path d="M223.897 105.808V106.677H221.944V107.981H220.642V106.677H218.69V105.808H220.642V104.505H221.944V105.808H223.897Z" fill="#295271"/>
<path d="M223.897 116.234V117.103H221.944V118.407H220.642V117.103H218.69V116.234H220.642V114.931H221.944V116.234H223.897Z" fill="#295271"/>
<path d="M223.897 126.66V127.529H221.944V128.833H220.642V127.529H218.69V126.66H220.642V125.357H221.944V126.66H223.897Z" fill="#295271"/>
<path d="M223.897 137.087V137.956H221.944V139.259H220.642V137.956H218.69V137.087H220.642V135.783H221.944V137.087H223.897Z" fill="#295271"/>
<path d="M223.897 147.513V148.382H221.944V149.685H220.642V148.382H218.69V147.513H220.642V146.209H221.944V147.513H223.897Z" fill="#295271"/>
<path d="M223.897 157.939V158.808H221.944V160.111H220.642V158.808H218.69V157.939H220.642V156.635H221.944V157.939H223.897Z" fill="#295271"/>
<path d="M223.897 168.365V169.234H221.944V170.537H220.642V169.234H218.69V168.365H220.642V167.062H221.944V168.365H223.897Z" fill="#295271"/>
<path d="M223.897 178.791V179.66H221.944V180.963H220.642V179.66H218.69V178.791H220.642V177.488H221.944V178.791H223.897Z" fill="#295271"/>
<path d="M223.897 189.217V190.086H221.944V191.389H220.642V190.086H218.69V189.217H220.642V187.914H221.944V189.217H223.897Z" fill="#295271"/>
<path d="M223.897 199.643V200.512H221.944V201.815H220.642V200.512H218.69V199.643H220.642V198.34H221.944V199.643H223.897Z" fill="#295271"/>
<path d="M208.276 1.5474V2.41624H206.324V3.71951H205.022V2.41624H203.069V1.5474H205.022V0.244141H206.324V1.5474H208.276Z" fill="#295271"/>
<path d="M208.276 11.9734V12.8423H206.324V14.1455H205.022V12.8423H203.069V11.9734H205.022V10.6702H206.324V11.9734H208.276Z" fill="#295271"/>
<path d="M208.276 22.3997V23.2685H206.324V24.5718H205.022V23.2685H203.069V22.3997H205.022V21.0964H206.324V22.3997H208.276Z" fill="#295271"/>
<path d="M208.276 32.8257V33.6946H206.324V34.9978H205.022V33.6946H203.069V32.8257H205.022V31.5225H206.324V32.8257H208.276Z" fill="#295271"/>
<path d="M208.276 43.2518V44.1206H206.324V45.4239H205.022V44.1206H203.069V43.2518H205.022V41.9485H206.324V43.2518H208.276Z" fill="#295271"/>
<path d="M208.276 53.6778V54.5466H206.324V55.8499H205.022V54.5466H203.069V53.6778H205.022V52.3745H206.324V53.6778H208.276Z" fill="#295271"/>
<path d="M208.276 64.104V64.9729H206.324V66.2761H205.022V64.9729H203.069V64.104H205.022V62.8008H206.324V64.104H208.276Z" fill="#295271"/>
<path d="M208.276 74.5301V75.3989H206.324V76.7022H205.022V75.3989H203.069V74.5301H205.022V73.2268H206.324V74.5301H208.276Z" fill="#295271"/>
<path d="M208.276 84.9561V85.8249H206.324V87.1282H205.022V85.8249H203.069V84.9561H205.022V83.6528H206.324V84.9561H208.276Z" fill="#295271"/>
<path d="M208.276 95.3824V96.2512H206.324V97.5545H205.022V96.2512H203.069V95.3824H205.022V94.0791H206.324V95.3824H208.276Z" fill="#295271"/>
<path d="M208.276 105.808V106.677H206.324V107.981H205.022V106.677H203.069V105.808H205.022V104.505H206.324V105.808H208.276Z" fill="#295271"/>
<path d="M208.276 116.234V117.103H206.324V118.407H205.022V117.103H203.069V116.234H205.022V114.931H206.324V116.234H208.276Z" fill="#295271"/>
<path d="M208.276 126.66V127.529H206.324V128.833H205.022V127.529H203.069V126.66H205.022V125.357H206.324V126.66H208.276Z" fill="#295271"/>
<path d="M208.276 137.087V137.956H206.324V139.259H205.022V137.956H203.069V137.087H205.022V135.783H206.324V137.087H208.276Z" fill="#295271"/>
<path d="M208.276 147.513V148.382H206.324V149.685H205.022V148.382H203.069V147.513H205.022V146.209H206.324V147.513H208.276Z" fill="#295271"/>
<path d="M208.276 157.939V158.808H206.324V160.111H205.022V158.808H203.069V157.939H205.022V156.635H206.324V157.939H208.276Z" fill="#295271"/>
<path d="M208.276 168.365V169.234H206.324V170.537H205.022V169.234H203.069V168.365H205.022V167.062H206.324V168.365H208.276Z" fill="#295271"/>
<path d="M208.276 178.791V179.66H206.324V180.963H205.022V179.66H203.069V178.791H205.022V177.488H206.324V178.791H208.276Z" fill="#295271"/>
<path d="M208.276 189.217V190.086H206.324V191.389H205.022V190.086H203.069V189.217H205.022V187.914H206.324V189.217H208.276Z" fill="#295271"/>
<path d="M208.276 199.643V200.512H206.324V201.815H205.022V200.512H203.069V199.643H205.022V198.34H206.324V199.643H208.276Z" fill="#295271"/>
<path d="M192.655 1.5474V2.41624H190.703V3.71951H189.401V2.41624H187.448V1.5474H189.401V0.244141H190.703V1.5474H192.655Z" fill="#295271"/>
<path d="M192.655 11.9734V12.8423H190.703V14.1455H189.401V12.8423H187.448V11.9734H189.401V10.6702H190.703V11.9734H192.655Z" fill="#295271"/>
<path d="M192.655 22.3997V23.2685H190.703V24.5718H189.401V23.2685H187.448V22.3997H189.401V21.0964H190.703V22.3997H192.655Z" fill="#295271"/>
<path d="M192.655 32.8257V33.6946H190.703V34.9978H189.401V33.6946H187.448V32.8257H189.401V31.5225H190.703V32.8257H192.655Z" fill="#295271"/>
<path d="M192.655 43.2518V44.1206H190.703V45.4239H189.401V44.1206H187.448V43.2518H189.401V41.9485H190.703V43.2518H192.655Z" fill="#295271"/>
<path d="M192.655 53.6778V54.5466H190.703V55.8499H189.401V54.5466H187.448V53.6778H189.401V52.3745H190.703V53.6778H192.655Z" fill="#295271"/>
<path d="M192.655 64.104V64.9729H190.703V66.2761H189.401V64.9729H187.448V64.104H189.401V62.8008H190.703V64.104H192.655Z" fill="#295271"/>
<path d="M192.655 74.5301V75.3989H190.703V76.7022H189.401V75.3989H187.448V74.5301H189.401V73.2268H190.703V74.5301H192.655Z" fill="#295271"/>
<path d="M192.655 84.9561V85.8249H190.703V87.1282H189.401V85.8249H187.448V84.9561H189.401V83.6528H190.703V84.9561H192.655Z" fill="#295271"/>
<path d="M192.655 95.3824V96.2512H190.703V97.5545H189.401V96.2512H187.448V95.3824H189.401V94.0791H190.703V95.3824H192.655Z" fill="#295271"/>
<path d="M192.655 105.808V106.677H190.703V107.981H189.401V106.677H187.448V105.808H189.401V104.505H190.703V105.808H192.655Z" fill="#295271"/>
<path d="M192.655 116.234V117.103H190.703V118.407H189.401V117.103H187.448V116.234H189.401V114.931H190.703V116.234H192.655Z" fill="#295271"/>
<path d="M192.655 126.66V127.529H190.703V128.833H189.401V127.529H187.448V126.66H189.401V125.357H190.703V126.66H192.655Z" fill="#295271"/>
<path d="M192.655 137.087V137.956H190.703V139.259H189.401V137.956H187.448V137.087H189.401V135.783H190.703V137.087H192.655Z" fill="#295271"/>
<path d="M192.655 147.513V148.382H190.703V149.685H189.401V148.382H187.448V147.513H189.401V146.209H190.703V147.513H192.655Z" fill="#295271"/>
<path d="M192.655 157.939V158.808H190.703V160.111H189.401V158.808H187.448V157.939H189.401V156.635H190.703V157.939H192.655Z" fill="#295271"/>
<path d="M192.655 168.365V169.234H190.703V170.537H189.401V169.234H187.448V168.365H189.401V167.062H190.703V168.365H192.655Z" fill="#295271"/>
<path d="M192.655 178.791V179.66H190.703V180.963H189.401V179.66H187.448V178.791H189.401V177.488H190.703V178.791H192.655Z" fill="#295271"/>
<path d="M192.655 189.217V190.086H190.703V191.389H189.401V190.086H187.448V189.217H189.401V187.914H190.703V189.217H192.655Z" fill="#295271"/>
<path d="M192.655 199.643V200.512H190.703V201.815H189.401V200.512H187.448V199.643H189.401V198.34H190.703V199.643H192.655Z" fill="#295271"/>
<path d="M177.035 1.5474V2.41624H175.082V3.71951H173.78V2.41624H171.828V1.5474H173.78V0.244141H175.082V1.5474H177.035Z" fill="#295271"/>
<path d="M177.035 11.9734V12.8423H175.082V14.1455H173.78V12.8423H171.828V11.9734H173.78V10.6702H175.082V11.9734H177.035Z" fill="#295271"/>
<path d="M177.035 22.3997V23.2685H175.082V24.5718H173.78V23.2685H171.828V22.3997H173.78V21.0964H175.082V22.3997H177.035Z" fill="#295271"/>
<path d="M177.035 32.8257V33.6946H175.082V34.9978H173.78V33.6946H171.828V32.8257H173.78V31.5225H175.082V32.8257H177.035Z" fill="#295271"/>
<path d="M177.035 43.2518V44.1206H175.082V45.4239H173.78V44.1206H171.828V43.2518H173.78V41.9485H175.082V43.2518H177.035Z" fill="#295271"/>
<path d="M177.035 53.6778V54.5466H175.082V55.8499H173.78V54.5466H171.828V53.6778H173.78V52.3745H175.082V53.6778H177.035Z" fill="#295271"/>
<path d="M177.035 64.104V64.9729H175.082V66.2761H173.78V64.9729H171.828V64.104H173.78V62.8008H175.082V64.104H177.035Z" fill="#295271"/>
<path d="M177.035 74.5301V75.3989H175.082V76.7022H173.78V75.3989H171.828V74.5301H173.78V73.2268H175.082V74.5301H177.035Z" fill="#295271"/>
<path d="M177.035 84.9561V85.8249H175.082V87.1282H173.78V85.8249H171.828V84.9561H173.78V83.6528H175.082V84.9561H177.035Z" fill="#295271"/>
<path d="M177.035 95.3824V96.2512H175.082V97.5545H173.78V96.2512H171.828V95.3824H173.78V94.0791H175.082V95.3824H177.035Z" fill="#295271"/>
<path d="M177.035 105.808V106.677H175.082V107.981H173.78V106.677H171.828V105.808H173.78V104.505H175.082V105.808H177.035Z" fill="#295271"/>
<path d="M177.035 116.234V117.103H175.082V118.407H173.78V117.103H171.828V116.234H173.78V114.931H175.082V116.234H177.035Z" fill="#295271"/>
<path d="M177.035 126.66V127.529H175.082V128.833H173.78V127.529H171.828V126.66H173.78V125.357H175.082V126.66H177.035Z" fill="#295271"/>
<path d="M177.035 137.087V137.956H175.082V139.259H173.78V137.956H171.828V137.087H173.78V135.783H175.082V137.087H177.035Z" fill="#295271"/>
<path d="M177.035 147.513V148.382H175.082V149.685H173.78V148.382H171.828V147.513H173.78V146.209H175.082V147.513H177.035Z" fill="#295271"/>
<path d="M177.035 157.939V158.808H175.082V160.111H173.78V158.808H171.828V157.939H173.78V156.635H175.082V157.939H177.035Z" fill="#295271"/>
<path d="M177.035 168.365V169.234H175.082V170.537H173.78V169.234H171.828V168.365H173.78V167.062H175.082V168.365H177.035Z" fill="#295271"/>
<path d="M177.035 178.791V179.66H175.082V180.963H173.78V179.66H171.828V178.791H173.78V177.488H175.082V178.791H177.035Z" fill="#295271"/>
<path d="M177.035 189.217V190.086H175.082V191.389H173.78V190.086H171.828V189.217H173.78V187.914H175.082V189.217H177.035Z" fill="#295271"/>
<path d="M177.035 199.643V200.512H175.082V201.815H173.78V200.512H171.828V199.643H173.78V198.34H175.082V199.643H177.035Z" fill="#295271"/>
<path d="M161.414 1.5474V2.41624H159.461V3.71951H158.16V2.41624H156.207V1.5474H158.16V0.244141H159.461V1.5474H161.414Z" fill="#295271"/>
<path d="M161.414 11.9734V12.8423H159.461V14.1455H158.16V12.8423H156.207V11.9734H158.16V10.6702H159.461V11.9734H161.414Z" fill="#295271"/>
<path d="M161.414 22.3997V23.2685H159.461V24.5718H158.16V23.2685H156.207V22.3997H158.16V21.0964H159.461V22.3997H161.414Z" fill="#295271"/>
<path d="M161.414 32.8257V33.6946H159.461V34.9978H158.16V33.6946H156.207V32.8257H158.16V31.5225H159.461V32.8257H161.414Z" fill="#295271"/>
<path d="M161.414 43.2518V44.1206H159.461V45.4239H158.16V44.1206H156.207V43.2518H158.16V41.9485H159.461V43.2518H161.414Z" fill="#295271"/>
<path d="M161.414 53.6778V54.5466H159.461V55.8499H158.16V54.5466H156.207V53.6778H158.16V52.3745H159.461V53.6778H161.414Z" fill="#295271"/>
<path d="M161.414 64.104V64.9729H159.461V66.2761H158.16V64.9729H156.207V64.104H158.16V62.8008H159.461V64.104H161.414Z" fill="#295271"/>
<path d="M161.414 74.5301V75.3989H159.461V76.7022H158.16V75.3989H156.207V74.5301H158.16V73.2268H159.461V74.5301H161.414Z" fill="#295271"/>
<path d="M161.414 84.9561V85.8249H159.461V87.1282H158.16V85.8249H156.207V84.9561H158.16V83.6528H159.461V84.9561H161.414Z" fill="#295271"/>
<path d="M161.414 95.3824V96.2512H159.461V97.5545H158.16V96.2512H156.207V95.3824H158.16V94.0791H159.461V95.3824H161.414Z" fill="#295271"/>
<path d="M161.414 105.808V106.677H159.461V107.981H158.16V106.677H156.207V105.808H158.16V104.505H159.461V105.808H161.414Z" fill="#295271"/>
<path d="M161.414 116.234V117.103H159.461V118.407H158.16V117.103H156.207V116.234H158.16V114.931H159.461V116.234H161.414Z" fill="#295271"/>
<path d="M161.414 126.66V127.529H159.461V128.833H158.16V127.529H156.207V126.66H158.16V125.357H159.461V126.66H161.414Z" fill="#295271"/>
<path d="M161.414 137.087V137.956H159.461V139.259H158.16V137.956H156.207V137.087H158.16V135.783H159.461V137.087H161.414Z" fill="#295271"/>
<path d="M161.414 147.513V148.382H159.461V149.685H158.16V148.382H156.207V147.513H158.16V146.209H159.461V147.513H161.414Z" fill="#295271"/>
<path d="M161.414 157.939V158.808H159.461V160.111H158.16V158.808H156.207V157.939H158.16V156.635H159.461V157.939H161.414Z" fill="#295271"/>
<path d="M161.414 168.365V169.234H159.461V170.537H158.16V169.234H156.207V168.365H158.16V167.062H159.461V168.365H161.414Z" fill="#295271"/>
<path d="M161.414 178.791V179.66H159.461V180.963H158.16V179.66H156.207V178.791H158.16V177.488H159.461V178.791H161.414Z" fill="#295271"/>
<path d="M161.414 189.217V190.086H159.461V191.389H158.16V190.086H156.207V189.217H158.16V187.914H159.461V189.217H161.414Z" fill="#295271"/>
<path d="M161.414 199.643V200.512H159.461V201.815H158.16V200.512H156.207V199.643H158.16V198.34H159.461V199.643H161.414Z" fill="#295271"/>
<path d="M145.793 1.5474V2.41624H143.841V3.71951H142.539V2.41624H140.586V1.5474H142.539V0.244141H143.841V1.5474H145.793Z" fill="#295271"/>
<path d="M145.793 11.9734V12.8423H143.841V14.1455H142.539V12.8423H140.586V11.9734H142.539V10.6702H143.841V11.9734H145.793Z" fill="#295271"/>
<path d="M145.793 22.3997V23.2685H143.841V24.5718H142.539V23.2685H140.586V22.3997H142.539V21.0964H143.841V22.3997H145.793Z" fill="#295271"/>
<path d="M145.793 32.8257V33.6946H143.841V34.9978H142.539V33.6946H140.586V32.8257H142.539V31.5225H143.841V32.8257H145.793Z" fill="#295271"/>
<path d="M145.793 43.2518V44.1206H143.841V45.4239H142.539V44.1206H140.586V43.2518H142.539V41.9485H143.841V43.2518H145.793Z" fill="#295271"/>
<path d="M145.793 53.6778V54.5466H143.841V55.8499H142.539V54.5466H140.586V53.6778H142.539V52.3745H143.841V53.6778H145.793Z" fill="#295271"/>
<path d="M145.793 64.104V64.9729H143.841V66.2761H142.539V64.9729H140.586V64.104H142.539V62.8008H143.841V64.104H145.793Z" fill="#295271"/>
<path d="M145.793 74.5301V75.3989H143.841V76.7022H142.539V75.3989H140.586V74.5301H142.539V73.2268H143.841V74.5301H145.793Z" fill="#295271"/>
<path d="M145.793 84.9561V85.8249H143.841V87.1282H142.539V85.8249H140.586V84.9561H142.539V83.6528H143.841V84.9561H145.793Z" fill="#295271"/>
<path d="M145.793 95.3824V96.2512H143.841V97.5545H142.539V96.2512H140.586V95.3824H142.539V94.0791H143.841V95.3824H145.793Z" fill="#295271"/>
<path d="M145.793 105.808V106.677H143.841V107.981H142.539V106.677H140.586V105.808H142.539V104.505H143.841V105.808H145.793Z" fill="#295271"/>
<path d="M145.793 116.234V117.103H143.841V118.407H142.539V117.103H140.586V116.234H142.539V114.931H143.841V116.234H145.793Z" fill="#295271"/>
<path d="M145.793 126.66V127.529H143.841V128.833H142.539V127.529H140.586V126.66H142.539V125.357H143.841V126.66H145.793Z" fill="#295271"/>
<path d="M145.793 137.087V137.956H143.841V139.259H142.539V137.956H140.586V137.087H142.539V135.783H143.841V137.087H145.793Z" fill="#295271"/>
<path d="M145.793 147.513V148.382H143.841V149.685H142.539V148.382H140.586V147.513H142.539V146.209H143.841V147.513H145.793Z" fill="#295271"/>
<path d="M145.793 157.939V158.808H143.841V160.111H142.539V158.808H140.586V157.939H142.539V156.635H143.841V157.939H145.793Z" fill="#295271"/>
<path d="M145.793 168.365V169.234H143.841V170.537H142.539V169.234H140.586V168.365H142.539V167.062H143.841V168.365H145.793Z" fill="#295271"/>
<path d="M145.793 178.791V179.66H143.841V180.963H142.539V179.66H140.586V178.791H142.539V177.488H143.841V178.791H145.793Z" fill="#295271"/>
<path d="M145.793 189.217V190.086H143.841V191.389H142.539V190.086H140.586V189.217H142.539V187.914H143.841V189.217H145.793Z" fill="#295271"/>
<path d="M145.793 199.643V200.512H143.841V201.815H142.539V200.512H140.586V199.643H142.539V198.34H143.841V199.643H145.793Z" fill="#295271"/>
<path d="M130.173 1.5474V2.41624H128.22V3.71951H126.918V2.41624H124.966V1.5474H126.918V0.244141H128.22V1.5474H130.173Z" fill="#295271"/>
<path d="M130.173 11.9734V12.8423H128.22V14.1455H126.918V12.8423H124.966V11.9734H126.918V10.6702H128.22V11.9734H130.173Z" fill="#295271"/>
<path d="M130.173 22.3997V23.2685H128.22V24.5718H126.918V23.2685H124.966V22.3997H126.918V21.0964H128.22V22.3997H130.173Z" fill="#295271"/>
<path d="M130.173 32.8257V33.6946H128.22V34.9978H126.918V33.6946H124.966V32.8257H126.918V31.5225H128.22V32.8257H130.173Z" fill="#295271"/>
<path d="M130.173 43.2518V44.1206H128.22V45.4239H126.918V44.1206H124.966V43.2518H126.918V41.9485H128.22V43.2518H130.173Z" fill="#295271"/>
<path d="M130.173 53.6778V54.5466H128.22V55.8499H126.918V54.5466H124.966V53.6778H126.918V52.3745H128.22V53.6778H130.173Z" fill="#295271"/>
<path d="M130.173 64.104V64.9729H128.22V66.2761H126.918V64.9729H124.966V64.104H126.918V62.8008H128.22V64.104H130.173Z" fill="#295271"/>
<path d="M130.173 74.5301V75.3989H128.22V76.7022H126.918V75.3989H124.966V74.5301H126.918V73.2268H128.22V74.5301H130.173Z" fill="#295271"/>
<path d="M130.173 84.9561V85.8249H128.22V87.1282H126.918V85.8249H124.966V84.9561H126.918V83.6528H128.22V84.9561H130.173Z" fill="#295271"/>
<path d="M130.173 95.3824V96.2512H128.22V97.5545H126.918V96.2512H124.966V95.3824H126.918V94.0791H128.22V95.3824H130.173Z" fill="#295271"/>
<path d="M130.173 105.808V106.677H128.22V107.981H126.918V106.677H124.966V105.808H126.918V104.505H128.22V105.808H130.173Z" fill="#295271"/>
<path d="M130.173 116.234V117.103H128.22V118.407H126.918V117.103H124.966V116.234H126.918V114.931H128.22V116.234H130.173Z" fill="#295271"/>
<path d="M130.173 126.66V127.529H128.22V128.833H126.918V127.529H124.966V126.66H126.918V125.357H128.22V126.66H130.173Z" fill="#295271"/>
<path d="M130.173 137.087V137.956H128.22V139.259H126.918V137.956H124.966V137.087H126.918V135.783H128.22V137.087H130.173Z" fill="#295271"/>
<path d="M130.173 147.513V148.382H128.22V149.685H126.918V148.382H124.966V147.513H126.918V146.209H128.22V147.513H130.173Z" fill="#295271"/>
<path d="M130.173 157.939V158.808H128.22V160.111H126.918V158.808H124.966V157.939H126.918V156.635H128.22V157.939H130.173Z" fill="#295271"/>
<path d="M130.173 168.365V169.234H128.22V170.537H126.918V169.234H124.966V168.365H126.918V167.062H128.22V168.365H130.173Z" fill="#295271"/>
<path d="M130.173 178.791V179.66H128.22V180.963H126.918V179.66H124.966V178.791H126.918V177.488H128.22V178.791H130.173Z" fill="#295271"/>
<path d="M130.173 189.217V190.086H128.22V191.389H126.918V190.086H124.966V189.217H126.918V187.914H128.22V189.217H130.173Z" fill="#295271"/>
<path d="M130.173 199.643V200.512H128.22V201.815H126.918V200.512H124.966V199.643H126.918V198.34H128.22V199.643H130.173Z" fill="#295271"/>
<path d="M114.552 1.5474V2.41624H112.599V3.71951H111.297V2.41624H109.345V1.5474H111.297V0.244141H112.599V1.5474H114.552Z" fill="#295271"/>
<path d="M114.552 11.9734V12.8423H112.599V14.1455H111.297V12.8423H109.345V11.9734H111.297V10.6702H112.599V11.9734H114.552Z" fill="#295271"/>
<path d="M114.552 22.3997V23.2685H112.599V24.5718H111.297V23.2685H109.345V22.3997H111.297V21.0964H112.599V22.3997H114.552Z" fill="#295271"/>
<path d="M114.552 32.8257V33.6946H112.599V34.9978H111.297V33.6946H109.345V32.8257H111.297V31.5225H112.599V32.8257H114.552Z" fill="#295271"/>
<path d="M114.552 43.2518V44.1206H112.599V45.4239H111.297V44.1206H109.345V43.2518H111.297V41.9485H112.599V43.2518H114.552Z" fill="#295271"/>
<path d="M114.552 53.6778V54.5466H112.599V55.8499H111.297V54.5466H109.345V53.6778H111.297V52.3745H112.599V53.6778H114.552Z" fill="#295271"/>
<path d="M114.552 64.104V64.9729H112.599V66.2761H111.297V64.9729H109.345V64.104H111.297V62.8008H112.599V64.104H114.552Z" fill="#295271"/>
<path d="M114.552 74.5301V75.3989H112.599V76.7022H111.297V75.3989H109.345V74.5301H111.297V73.2268H112.599V74.5301H114.552Z" fill="#295271"/>
<path d="M114.552 84.9561V85.8249H112.599V87.1282H111.297V85.8249H109.345V84.9561H111.297V83.6528H112.599V84.9561H114.552Z" fill="#295271"/>
<path d="M114.552 95.3824V96.2512H112.599V97.5545H111.297V96.2512H109.345V95.3824H111.297V94.0791H112.599V95.3824H114.552Z" fill="#295271"/>
<path d="M114.552 105.808V106.677H112.599V107.981H111.297V106.677H109.345V105.808H111.297V104.505H112.599V105.808H114.552Z" fill="#295271"/>
<path d="M114.552 116.234V117.103H112.599V118.407H111.297V117.103H109.345V116.234H111.297V114.931H112.599V116.234H114.552Z" fill="#295271"/>
<path d="M114.552 126.66V127.529H112.599V128.833H111.297V127.529H109.345V126.66H111.297V125.357H112.599V126.66H114.552Z" fill="#295271"/>
<path d="M114.552 137.087V137.956H112.599V139.259H111.297V137.956H109.345V137.087H111.297V135.783H112.599V137.087H114.552Z" fill="#295271"/>
<path d="M114.552 147.513V148.382H112.599V149.685H111.297V148.382H109.345V147.513H111.297V146.209H112.599V147.513H114.552Z" fill="#295271"/>
<path d="M114.552 157.939V158.808H112.599V160.111H111.297V158.808H109.345V157.939H111.297V156.635H112.599V157.939H114.552Z" fill="#295271"/>
<path d="M114.552 168.365V169.234H112.599V170.537H111.297V169.234H109.345V168.365H111.297V167.062H112.599V168.365H114.552Z" fill="#295271"/>
<path d="M114.552 178.791V179.66H112.599V180.963H111.297V179.66H109.345V178.791H111.297V177.488H112.599V178.791H114.552Z" fill="#295271"/>
<path d="M114.552 189.217V190.086H112.599V191.389H111.297V190.086H109.345V189.217H111.297V187.914H112.599V189.217H114.552Z" fill="#295271"/>
<path d="M114.552 199.643V200.512H112.599V201.815H111.297V200.512H109.345V199.643H111.297V198.34H112.599V199.643H114.552Z" fill="#295271"/>
<path d="M98.931 1.5474V2.41624H96.9784V3.71951H95.6767V2.41624H93.7241V1.5474H95.6767V0.244141H96.9784V1.5474H98.931Z" fill="#295271"/>
<path d="M98.9305 11.9734V12.8423H96.978V14.1455H95.6762V12.8423H93.7236V11.9734H95.6762V10.6702H96.978V11.9734H98.9305Z" fill="#295271"/>
<path d="M98.9305 22.3997V23.2685H96.978V24.5718H95.6762V23.2685H93.7236V22.3997H95.6762V21.0964H96.978V22.3997H98.9305Z" fill="#295271"/>
<path d="M98.9305 32.8257V33.6946H96.978V34.9978H95.6762V33.6946H93.7236V32.8257H95.6762V31.5225H96.978V32.8257H98.9305Z" fill="#295271"/>
<path d="M98.9305 43.2518V44.1206H96.978V45.4239H95.6762V44.1206H93.7236V43.2518H95.6762V41.9485H96.978V43.2518H98.9305Z" fill="#295271"/>
<path d="M98.9305 53.6778V54.5466H96.978V55.8499H95.6762V54.5466H93.7236V53.6778H95.6762V52.3745H96.978V53.6778H98.9305Z" fill="#295271"/>
<path d="M98.9305 64.104V64.9729H96.978V66.2761H95.6762V64.9729H93.7236V64.104H95.6762V62.8008H96.978V64.104H98.9305Z" fill="#295271"/>
<path d="M98.9305 74.5301V75.3989H96.978V76.7022H95.6762V75.3989H93.7236V74.5301H95.6762V73.2268H96.978V74.5301H98.9305Z" fill="#295271"/>
<path d="M98.9305 84.9561V85.8249H96.978V87.1282H95.6762V85.8249H93.7236V84.9561H95.6762V83.6528H96.978V84.9561H98.9305Z" fill="#295271"/>
<path d="M98.9305 95.3824V96.2512H96.978V97.5545H95.6762V96.2512H93.7236V95.3824H95.6762V94.0791H96.978V95.3824H98.9305Z" fill="#295271"/>
<path d="M98.9305 105.808V106.677H96.978V107.981H95.6762V106.677H93.7236V105.808H95.6762V104.505H96.978V105.808H98.9305Z" fill="#295271"/>
<path d="M98.9305 116.234V117.103H96.978V118.407H95.6762V117.103H93.7236V116.234H95.6762V114.931H96.978V116.234H98.9305Z" fill="#295271"/>
<path d="M98.9305 126.66V127.529H96.978V128.833H95.6762V127.529H93.7236V126.66H95.6762V125.357H96.978V126.66H98.9305Z" fill="#295271"/>
<path d="M98.9305 137.087V137.956H96.978V139.259H95.6762V137.956H93.7236V137.087H95.6762V135.783H96.978V137.087H98.9305Z" fill="#295271"/>
<path d="M98.9305 147.513V148.382H96.978V149.685H95.6762V148.382H93.7236V147.513H95.6762V146.209H96.978V147.513H98.9305Z" fill="#295271"/>
<path d="M98.9305 157.939V158.808H96.978V160.111H95.6762V158.808H93.7236V157.939H95.6762V156.635H96.978V157.939H98.9305Z" fill="#295271"/>
<path d="M98.9305 168.365V169.234H96.978V170.537H95.6762V169.234H93.7236V168.365H95.6762V167.062H96.978V168.365H98.9305Z" fill="#295271"/>
<path d="M98.9305 178.791V179.66H96.978V180.963H95.6762V179.66H93.7236V178.791H95.6762V177.488H96.978V178.791H98.9305Z" fill="#295271"/>
<path d="M98.9305 189.217V190.086H96.978V191.389H95.6762V190.086H93.7236V189.217H95.6762V187.914H96.978V189.217H98.9305Z" fill="#295271"/>
<path d="M98.9305 199.643V200.512H96.978V201.815H95.6762V200.512H93.7236V199.643H95.6762V198.34H96.978V199.643H98.9305Z" fill="#295271"/>
<path d="M83.3104 1.5474V2.41624H81.3578V3.71951H80.0561V2.41624H78.1035V1.5474H80.0561V0.244141H81.3578V1.5474H83.3104Z" fill="#295271"/>
<path d="M83.3104 11.9734V12.8423H81.3578V14.1455H80.0561V12.8423H78.1035V11.9734H80.0561V10.6702H81.3578V11.9734H83.3104Z" fill="#295271"/>
<path d="M83.3104 22.3997V23.2685H81.3578V24.5718H80.0561V23.2685H78.1035V22.3997H80.0561V21.0964H81.3578V22.3997H83.3104Z" fill="#295271"/>
<path d="M83.3104 32.8257V33.6946H81.3578V34.9978H80.0561V33.6946H78.1035V32.8257H80.0561V31.5225H81.3578V32.8257H83.3104Z" fill="#295271"/>
<path d="M83.3104 43.2518V44.1206H81.3578V45.4239H80.0561V44.1206H78.1035V43.2518H80.0561V41.9485H81.3578V43.2518H83.3104Z" fill="#295271"/>
<path d="M83.3104 53.6778V54.5466H81.3578V55.8499H80.0561V54.5466H78.1035V53.6778H80.0561V52.3745H81.3578V53.6778H83.3104Z" fill="#295271"/>
<path d="M83.3104 64.104V64.9729H81.3578V66.2761H80.0561V64.9729H78.1035V64.104H80.0561V62.8008H81.3578V64.104H83.3104Z" fill="#295271"/>
<path d="M83.3104 74.5301V75.3989H81.3578V76.7022H80.0561V75.3989H78.1035V74.5301H80.0561V73.2268H81.3578V74.5301H83.3104Z" fill="#295271"/>
<path d="M83.3104 84.9561V85.8249H81.3578V87.1282H80.0561V85.8249H78.1035V84.9561H80.0561V83.6528H81.3578V84.9561H83.3104Z" fill="#295271"/>
<path d="M83.3104 95.3824V96.2512H81.3578V97.5545H80.0561V96.2512H78.1035V95.3824H80.0561V94.0791H81.3578V95.3824H83.3104Z" fill="#295271"/>
<path d="M83.3104 105.808V106.677H81.3578V107.981H80.0561V106.677H78.1035V105.808H80.0561V104.505H81.3578V105.808H83.3104Z" fill="#295271"/>
<path d="M83.3104 116.234V117.103H81.3578V118.407H80.0561V117.103H78.1035V116.234H80.0561V114.931H81.3578V116.234H83.3104Z" fill="#295271"/>
<path d="M83.3104 126.66V127.529H81.3578V128.833H80.0561V127.529H78.1035V126.66H80.0561V125.357H81.3578V126.66H83.3104Z" fill="#295271"/>
<path d="M83.3104 137.087V137.956H81.3578V139.259H80.0561V137.956H78.1035V137.087H80.0561V135.783H81.3578V137.087H83.3104Z" fill="#295271"/>
<path d="M83.3104 147.513V148.382H81.3578V149.685H80.0561V148.382H78.1035V147.513H80.0561V146.209H81.3578V147.513H83.3104Z" fill="#295271"/>
<path d="M83.3104 157.939V158.808H81.3578V160.111H80.0561V158.808H78.1035V157.939H80.0561V156.635H81.3578V157.939H83.3104Z" fill="#295271"/>
<path d="M83.3104 168.365V169.234H81.3578V170.537H80.0561V169.234H78.1035V168.365H80.0561V167.062H81.3578V168.365H83.3104Z" fill="#295271"/>
<path d="M83.3104 178.791V179.66H81.3578V180.963H80.0561V179.66H78.1035V178.791H80.0561V177.488H81.3578V178.791H83.3104Z" fill="#295271"/>
<path d="M83.3104 189.217V190.086H81.3578V191.389H80.0561V190.086H78.1035V189.217H80.0561V187.914H81.3578V189.217H83.3104Z" fill="#295271"/>
<path d="M83.3104 199.643V200.512H81.3578V201.815H80.0561V200.512H78.1035V199.643H80.0561V198.34H81.3578V199.643H83.3104Z" fill="#295271"/>
<path d="M67.6898 1.5474V2.41624H65.7372V3.71951H64.4355V2.41624H62.4829V1.5474H64.4355V0.244141H65.7372V1.5474H67.6898Z" fill="#295271"/>
<path d="M67.6898 11.9734V12.8423H65.7372V14.1455H64.4355V12.8423H62.4829V11.9734H64.4355V10.6702H65.7372V11.9734H67.6898Z" fill="#295271"/>
<path d="M67.6898 22.3997V23.2685H65.7372V24.5718H64.4355V23.2685H62.4829V22.3997H64.4355V21.0964H65.7372V22.3997H67.6898Z" fill="#295271"/>
<path d="M67.6898 32.8257V33.6946H65.7372V34.9978H64.4355V33.6946H62.4829V32.8257H64.4355V31.5225H65.7372V32.8257H67.6898Z" fill="#295271"/>
<path d="M67.6898 43.2518V44.1206H65.7372V45.4239H64.4355V44.1206H62.4829V43.2518H64.4355V41.9485H65.7372V43.2518H67.6898Z" fill="#295271"/>
<path d="M67.6898 53.6778V54.5466H65.7372V55.8499H64.4355V54.5466H62.4829V53.6778H64.4355V52.3745H65.7372V53.6778H67.6898Z" fill="#295271"/>
<path d="M67.6898 64.104V64.9729H65.7372V66.2761H64.4355V64.9729H62.4829V64.104H64.4355V62.8008H65.7372V64.104H67.6898Z" fill="#295271"/>
<path d="M67.6898 74.5301V75.3989H65.7372V76.7022H64.4355V75.3989H62.4829V74.5301H64.4355V73.2268H65.7372V74.5301H67.6898Z" fill="#295271"/>
<path d="M67.6898 84.9561V85.8249H65.7372V87.1282H64.4355V85.8249H62.4829V84.9561H64.4355V83.6528H65.7372V84.9561H67.6898Z" fill="#295271"/>
<path d="M67.6898 95.3824V96.2512H65.7372V97.5545H64.4355V96.2512H62.4829V95.3824H64.4355V94.0791H65.7372V95.3824H67.6898Z" fill="#295271"/>
<path d="M67.6898 105.808V106.677H65.7372V107.981H64.4355V106.677H62.4829V105.808H64.4355V104.505H65.7372V105.808H67.6898Z" fill="#295271"/>
<path d="M67.6898 116.234V117.103H65.7372V118.407H64.4355V117.103H62.4829V116.234H64.4355V114.931H65.7372V116.234H67.6898Z" fill="#295271"/>
<path d="M67.6898 126.66V127.529H65.7372V128.833H64.4355V127.529H62.4829V126.66H64.4355V125.357H65.7372V126.66H67.6898Z" fill="#295271"/>
<path d="M67.6898 137.087V137.956H65.7372V139.259H64.4355V137.956H62.4829V137.087H64.4355V135.783H65.7372V137.087H67.6898Z" fill="#295271"/>
<path d="M67.6898 147.513V148.382H65.7372V149.685H64.4355V148.382H62.4829V147.513H64.4355V146.209H65.7372V147.513H67.6898Z" fill="#295271"/>
<path d="M67.6898 157.939V158.808H65.7372V160.111H64.4355V158.808H62.4829V157.939H64.4355V156.635H65.7372V157.939H67.6898Z" fill="#295271"/>
<path d="M67.6898 168.365V169.234H65.7372V170.537H64.4355V169.234H62.4829V168.365H64.4355V167.062H65.7372V168.365H67.6898Z" fill="#295271"/>
<path d="M67.6898 178.791V179.66H65.7372V180.963H64.4355V179.66H62.4829V178.791H64.4355V177.488H65.7372V178.791H67.6898Z" fill="#295271"/>
<path d="M67.6898 189.217V190.086H65.7372V191.389H64.4355V190.086H62.4829V189.217H64.4355V187.914H65.7372V189.217H67.6898Z" fill="#295271"/>
<path d="M67.6898 199.643V200.512H65.7372V201.815H64.4355V200.512H62.4829V199.643H64.4355V198.34H65.7372V199.643H67.6898Z" fill="#295271"/>
<path d="M52.0692 1.5474V2.41624H50.1166V3.71951H48.8149V2.41624H46.8623V1.5474H48.8149V0.244141H50.1166V1.5474H52.0692Z" fill="#295271"/>
<path d="M52.0692 11.9734V12.8423H50.1166V14.1455H48.8149V12.8423H46.8623V11.9734H48.8149V10.6702H50.1166V11.9734H52.0692Z" fill="#295271"/>
<path d="M52.0692 22.3997V23.2685H50.1166V24.5718H48.8149V23.2685H46.8623V22.3997H48.8149V21.0964H50.1166V22.3997H52.0692Z" fill="#295271"/>
<path d="M52.0692 32.8257V33.6946H50.1166V34.9978H48.8149V33.6946H46.8623V32.8257H48.8149V31.5225H50.1166V32.8257H52.0692Z" fill="#295271"/>
<path d="M52.0692 43.2518V44.1206H50.1166V45.4239H48.8149V44.1206H46.8623V43.2518H48.8149V41.9485H50.1166V43.2518H52.0692Z" fill="#295271"/>
<path d="M52.0692 53.6778V54.5466H50.1166V55.8499H48.8149V54.5466H46.8623V53.6778H48.8149V52.3745H50.1166V53.6778H52.0692Z" fill="#295271"/>
<path d="M52.0692 64.104V64.9729H50.1166V66.2761H48.8149V64.9729H46.8623V64.104H48.8149V62.8008H50.1166V64.104H52.0692Z" fill="#295271"/>
<path d="M52.0692 74.5301V75.3989H50.1166V76.7022H48.8149V75.3989H46.8623V74.5301H48.8149V73.2268H50.1166V74.5301H52.0692Z" fill="#295271"/>
<path d="M52.0692 84.9561V85.8249H50.1166V87.1282H48.8149V85.8249H46.8623V84.9561H48.8149V83.6528H50.1166V84.9561H52.0692Z" fill="#295271"/>
<path d="M52.0692 95.3824V96.2512H50.1166V97.5545H48.8149V96.2512H46.8623V95.3824H48.8149V94.0791H50.1166V95.3824H52.0692Z" fill="#295271"/>
<path d="M52.0692 105.808V106.677H50.1166V107.981H48.8149V106.677H46.8623V105.808H48.8149V104.505H50.1166V105.808H52.0692Z" fill="#295271"/>
<path d="M52.0692 116.234V117.103H50.1166V118.407H48.8149V117.103H46.8623V116.234H48.8149V114.931H50.1166V116.234H52.0692Z" fill="#295271"/>
<path d="M52.0692 126.66V127.529H50.1166V128.833H48.8149V127.529H46.8623V126.66H48.8149V125.357H50.1166V126.66H52.0692Z" fill="#295271"/>
<path d="M52.0692 137.087V137.956H50.1166V139.259H48.8149V137.956H46.8623V137.087H48.8149V135.783H50.1166V137.087H52.0692Z" fill="#295271"/>
<path d="M52.0692 147.513V148.382H50.1166V149.685H48.8149V148.382H46.8623V147.513H48.8149V146.209H50.1166V147.513H52.0692Z" fill="#295271"/>
<path d="M52.0692 157.939V158.808H50.1166V160.111H48.8149V158.808H46.8623V157.939H48.8149V156.635H50.1166V157.939H52.0692Z" fill="#295271"/>
<path d="M52.0692 168.365V169.234H50.1166V170.537H48.8149V169.234H46.8623V168.365H48.8149V167.062H50.1166V168.365H52.0692Z" fill="#295271"/>
<path d="M52.0692 178.791V179.66H50.1166V180.963H48.8149V179.66H46.8623V178.791H48.8149V177.488H50.1166V178.791H52.0692Z" fill="#295271"/>
<path d="M52.0692 189.217V190.086H50.1166V191.389H48.8149V190.086H46.8623V189.217H48.8149V187.914H50.1166V189.217H52.0692Z" fill="#295271"/>
<path d="M52.0692 199.643V200.512H50.1166V201.815H48.8149V200.512H46.8623V199.643H48.8149V198.34H50.1166V199.643H52.0692Z" fill="#295271"/>
<path d="M36.4481 1.5474V2.41624H34.4955V3.71951H33.1938V2.41624H31.2412V1.5474H33.1938V0.244141H34.4955V1.5474H36.4481Z" fill="#295271"/>
<path d="M36.4481 11.9734V12.8423H34.4955V14.1455H33.1938V12.8423H31.2412V11.9734H33.1938V10.6702H34.4955V11.9734H36.4481Z" fill="#295271"/>
<path d="M36.4481 22.3997V23.2685H34.4955V24.5718H33.1938V23.2685H31.2412V22.3997H33.1938V21.0964H34.4955V22.3997H36.4481Z" fill="#295271"/>
<path d="M36.4481 32.8257V33.6946H34.4955V34.9978H33.1938V33.6946H31.2412V32.8257H33.1938V31.5225H34.4955V32.8257H36.4481Z" fill="#295271"/>
<path d="M36.4481 43.2518V44.1206H34.4955V45.4239H33.1938V44.1206H31.2412V43.2518H33.1938V41.9485H34.4955V43.2518H36.4481Z" fill="#295271"/>
<path d="M36.4481 53.6778V54.5466H34.4955V55.8499H33.1938V54.5466H31.2412V53.6778H33.1938V52.3745H34.4955V53.6778H36.4481Z" fill="#295271"/>
<path d="M36.4481 64.104V64.9729H34.4955V66.2761H33.1938V64.9729H31.2412V64.104H33.1938V62.8008H34.4955V64.104H36.4481Z" fill="#295271"/>
<path d="M36.4481 74.5301V75.3989H34.4955V76.7022H33.1938V75.3989H31.2412V74.5301H33.1938V73.2268H34.4955V74.5301H36.4481Z" fill="#295271"/>
<path d="M36.4481 84.9561V85.8249H34.4955V87.1282H33.1938V85.8249H31.2412V84.9561H33.1938V83.6528H34.4955V84.9561H36.4481Z" fill="#295271"/>
<path d="M36.4481 95.3824V96.2512H34.4955V97.5545H33.1938V96.2512H31.2412V95.3824H33.1938V94.0791H34.4955V95.3824H36.4481Z" fill="#295271"/>
<path d="M36.4481 105.808V106.677H34.4955V107.981H33.1938V106.677H31.2412V105.808H33.1938V104.505H34.4955V105.808H36.4481Z" fill="#295271"/>
<path d="M36.4481 116.234V117.103H34.4955V118.407H33.1938V117.103H31.2412V116.234H33.1938V114.931H34.4955V116.234H36.4481Z" fill="#295271"/>
<path d="M36.4481 126.66V127.529H34.4955V128.833H33.1938V127.529H31.2412V126.66H33.1938V125.357H34.4955V126.66H36.4481Z" fill="#295271"/>
<path d="M36.4481 137.087V137.956H34.4955V139.259H33.1938V137.956H31.2412V137.087H33.1938V135.783H34.4955V137.087H36.4481Z" fill="#295271"/>
<path d="M36.4481 147.513V148.382H34.4955V149.685H33.1938V148.382H31.2412V147.513H33.1938V146.209H34.4955V147.513H36.4481Z" fill="#295271"/>
<path d="M36.4481 157.939V158.808H34.4955V160.111H33.1938V158.808H31.2412V157.939H33.1938V156.635H34.4955V157.939H36.4481Z" fill="#295271"/>
<path d="M36.4481 168.365V169.234H34.4955V170.537H33.1938V169.234H31.2412V168.365H33.1938V167.062H34.4955V168.365H36.4481Z" fill="#295271"/>
<path d="M36.4481 178.791V179.66H34.4955V180.963H33.1938V179.66H31.2412V178.791H33.1938V177.488H34.4955V178.791H36.4481Z" fill="#295271"/>
<path d="M36.4481 189.217V190.086H34.4955V191.389H33.1938V190.086H31.2412V189.217H33.1938V187.914H34.4955V189.217H36.4481Z" fill="#295271"/>
<path d="M36.4481 199.643V200.512H34.4955V201.815H33.1938V200.512H31.2412V199.643H33.1938V198.34H34.4955V199.643H36.4481Z" fill="#295271"/>
<path d="M20.8275 1.5474V2.41624H18.8749V3.71951H17.5732V2.41624H15.6206V1.5474H17.5732V0.244141H18.8749V1.5474H20.8275Z" fill="#295271"/>
<path d="M20.8275 11.9734V12.8423H18.8749V14.1455H17.5732V12.8423H15.6206V11.9734H17.5732V10.6702H18.8749V11.9734H20.8275Z" fill="#295271"/>
<path d="M20.8275 22.3997V23.2685H18.8749V24.5718H17.5732V23.2685H15.6206V22.3997H17.5732V21.0964H18.8749V22.3997H20.8275Z" fill="#295271"/>
<path d="M20.8275 32.8257V33.6946H18.8749V34.9978H17.5732V33.6946H15.6206V32.8257H17.5732V31.5225H18.8749V32.8257H20.8275Z" fill="#295271"/>
<path d="M20.8275 43.2518V44.1206H18.8749V45.4239H17.5732V44.1206H15.6206V43.2518H17.5732V41.9485H18.8749V43.2518H20.8275Z" fill="#295271"/>
<path d="M20.8275 53.6778V54.5466H18.8749V55.8499H17.5732V54.5466H15.6206V53.6778H17.5732V52.3745H18.8749V53.6778H20.8275Z" fill="#295271"/>
<path d="M20.8275 64.104V64.9729H18.8749V66.2761H17.5732V64.9729H15.6206V64.104H17.5732V62.8008H18.8749V64.104H20.8275Z" fill="#295271"/>
<path d="M20.8275 74.5301V75.3989H18.8749V76.7022H17.5732V75.3989H15.6206V74.5301H17.5732V73.2268H18.8749V74.5301H20.8275Z" fill="#295271"/>
<path d="M20.8275 84.9561V85.8249H18.8749V87.1282H17.5732V85.8249H15.6206V84.9561H17.5732V83.6528H18.8749V84.9561H20.8275Z" fill="#295271"/>
<path d="M20.8275 95.3824V96.2512H18.8749V97.5545H17.5732V96.2512H15.6206V95.3824H17.5732V94.0791H18.8749V95.3824H20.8275Z" fill="#295271"/>
<path d="M20.8275 105.808V106.677H18.8749V107.981H17.5732V106.677H15.6206V105.808H17.5732V104.505H18.8749V105.808H20.8275Z" fill="#295271"/>
<path d="M20.8275 116.234V117.103H18.8749V118.407H17.5732V117.103H15.6206V116.234H17.5732V114.931H18.8749V116.234H20.8275Z" fill="#295271"/>
<path d="M20.8275 126.66V127.529H18.8749V128.833H17.5732V127.529H15.6206V126.66H17.5732V125.357H18.8749V126.66H20.8275Z" fill="#295271"/>
<path d="M20.8275 137.087V137.956H18.8749V139.259H17.5732V137.956H15.6206V137.087H17.5732V135.783H18.8749V137.087H20.8275Z" fill="#295271"/>
<path d="M20.8275 147.513V148.382H18.8749V149.685H17.5732V148.382H15.6206V147.513H17.5732V146.209H18.8749V147.513H20.8275Z" fill="#295271"/>
<path d="M20.8275 157.939V158.808H18.8749V160.111H17.5732V158.808H15.6206V157.939H17.5732V156.635H18.8749V157.939H20.8275Z" fill="#295271"/>
<path d="M20.8275 168.365V169.234H18.8749V170.537H17.5732V169.234H15.6206V168.365H17.5732V167.062H18.8749V168.365H20.8275Z" fill="#295271"/>
<path d="M20.8275 178.791V179.66H18.8749V180.963H17.5732V179.66H15.6206V178.791H17.5732V177.488H18.8749V178.791H20.8275Z" fill="#295271"/>
<path d="M20.8275 189.217V190.086H18.8749V191.389H17.5732V190.086H15.6206V189.217H17.5732V187.914H18.8749V189.217H20.8275Z" fill="#295271"/>
<path d="M20.8275 199.643V200.512H18.8749V201.815H17.5732V200.512H15.6206V199.643H17.5732V198.34H18.8749V199.643H20.8275Z" fill="#295271"/>
<path d="M5.20691 1.5474V2.41624H3.25432V3.71951H1.95259V2.41624H0V1.5474H1.95259V0.244141H3.25432V1.5474H5.20691Z" fill="#295271"/>
<path d="M5.20691 11.9734V12.8423H3.25432V14.1455H1.95259V12.8423H0V11.9734H1.95259V10.6702H3.25432V11.9734H5.20691Z" fill="#295271"/>
<path d="M5.20691 22.3997V23.2685H3.25432V24.5718H1.95259V23.2685H0V22.3997H1.95259V21.0964H3.25432V22.3997H5.20691Z" fill="#295271"/>
<path d="M5.20691 32.8257V33.6946H3.25432V34.9978H1.95259V33.6946H0V32.8257H1.95259V31.5225H3.25432V32.8257H5.20691Z" fill="#295271"/>
<path d="M5.20691 43.2518V44.1206H3.25432V45.4239H1.95259V44.1206H0V43.2518H1.95259V41.9485H3.25432V43.2518H5.20691Z" fill="#295271"/>
<path d="M5.20691 53.6778V54.5466H3.25432V55.8499H1.95259V54.5466H0V53.6778H1.95259V52.3745H3.25432V53.6778H5.20691Z" fill="#295271"/>
<path d="M5.20691 64.104V64.9729H3.25432V66.2761H1.95259V64.9729H0V64.104H1.95259V62.8008H3.25432V64.104H5.20691Z" fill="#295271"/>
<path d="M5.20691 74.5301V75.3989H3.25432V76.7022H1.95259V75.3989H0V74.5301H1.95259V73.2268H3.25432V74.5301H5.20691Z" fill="#295271"/>
<path d="M5.20691 84.9561V85.8249H3.25432V87.1282H1.95259V85.8249H0V84.9561H1.95259V83.6528H3.25432V84.9561H5.20691Z" fill="#295271"/>
<path d="M5.20691 95.3824V96.2512H3.25432V97.5545H1.95259V96.2512H0V95.3824H1.95259V94.0791H3.25432V95.3824H5.20691Z" fill="#295271"/>
<path d="M5.20691 105.808V106.677H3.25432V107.981H1.95259V106.677H0V105.808H1.95259V104.505H3.25432V105.808H5.20691Z" fill="#295271"/>
<path d="M5.20691 116.234V117.103H3.25432V118.407H1.95259V117.103H0V116.234H1.95259V114.931H3.25432V116.234H5.20691Z" fill="#295271"/>
<path d="M5.20691 126.66V127.529H3.25432V128.833H1.95259V127.529H0V126.66H1.95259V125.357H3.25432V126.66H5.20691Z" fill="#295271"/>
<path d="M5.20691 137.087V137.956H3.25432V139.259H1.95259V137.956H0V137.087H1.95259V135.783H3.25432V137.087H5.20691Z" fill="#295271"/>
<path d="M5.20691 147.513V148.382H3.25432V149.685H1.95259V148.382H0V147.513H1.95259V146.209H3.25432V147.513H5.20691Z" fill="#295271"/>
<path d="M5.20691 157.939V158.808H3.25432V160.111H1.95259V158.808H0V157.939H1.95259V156.635H3.25432V157.939H5.20691Z" fill="#295271"/>
<path d="M5.20691 168.365V169.234H3.25432V170.537H1.95259V169.234H0V168.365H1.95259V167.062H3.25432V168.365H5.20691Z" fill="#295271"/>
<path d="M5.20691 178.791V179.66H3.25432V180.963H1.95259V179.66H0V178.791H1.95259V177.488H3.25432V178.791H5.20691Z" fill="#295271"/>
<path d="M5.20691 189.217V190.086H3.25432V191.389H1.95259V190.086H0V189.217H1.95259V187.914H3.25432V189.217H5.20691Z" fill="#295271"/>
<path d="M5.20691 199.643V200.512H3.25432V201.815H1.95259V200.512H0V199.643H1.95259V198.34H3.25432V199.643H5.20691Z" fill="#295271"/>
</g>
</svg>
