<svg xmlns="http://www.w3.org/2000/svg" version="1.1" xmlns:xlink="http://www.w3.org/1999/xlink" xmlns:svgjs="http://svgjs.dev/svgjs" width="1000" height="1000" viewBox="0 0 1000 1000"><rect width="1000" height="1000" fill="#ffffff"></rect><g transform="matrix(0.7,0,0,0.7,149.57575757575756,282.1265587044535)"><svg viewBox="0 0 396 247" data-background-color="#282634" preserveAspectRatio="xMidYMid meet" height="623" width="1000" xmlns="http://www.w3.org/2000/svg" xmlns:xlink="http://www.w3.org/1999/xlink"><g id="tight-bounds" transform="matrix(1,0,0,1,0.2400000000000091,-0.09999999999999432)"><svg viewBox="0 0 395.52 247.2" height="247.2" width="395.52"><g><svg></svg></g><g><svg viewBox="0 0 395.52 247.2" height="247.2" width="395.52"><g transform="matrix(1,0,0,1,75.54432,96.04866275555554)"><svg viewBox="0 0 244.43135999999998 55.102674488888894" height="55.102674488888894" width="244.43135999999998"><g><svg viewBox="0 0 244.43135999999998 55.102674488888894" height="55.102674488888894" width="244.43135999999998"><g><svg viewBox="0 0 244.43135999999998 55.102674488888894" height="55.102674488888894" width="244.43135999999998"><g><svg viewBox="0 0 244.43135999999998 55.102674488888894" height="55.102674488888894" width="244.43135999999998"><g id="textblocktransform"><svg viewBox="0 0 244.43135999999998 55.102674488888894" height="55.102674488888894" width="244.43135999999998" id="textblock"><g><svg viewBox="0 0 244.43135999999998 55.102674488888894" height="55.102674488888894" width="244.43135999999998"><g transform="matrix(1,0,0,1,0,0)"><svg width="244.43135999999998" viewBox="0 -29.5 202.47999572753906 45.650001525878906" height="55.102674488888894" data-palette-color="#ff4057"><path d="M1.5 0L0 0 0-29.5 1.5-29.5 1.5 0ZM4.5 0L3 0 3-29.5 4.5-29.5 4.5 0ZM10.5 0L6 0 6-29.5 10.5-29.5 10.5 0ZM18 0L16.5 0 16.5-29.5 18-29.5 18 0ZM24 0L19.5 0 19.5-29.5 24-29.5 24 0ZM9.1 15.95L9.1 4.35 11.8 4.35Q13.25 4.35 14.05 4.75L14.05 4.75Q14.9 5.15 15.5 5.95L15.5 5.95Q16.65 7.45 16.65 10.2L16.65 10.2Q16.55 13.05 15.35 14.5L15.35 14.5Q14.15 16 11.6 15.95L11.6 15.95 9.1 15.95ZM10.35 14.95L11.5 14.95Q15.35 14.95 15.35 10.3L15.35 10.3Q15.35 7.95 14.5 6.7L14.5 6.7Q13.6 5.45 11.7 5.45L11.7 5.45 10.35 5.45 10.35 14.95ZM27 0L25.5 0 25.5-29.5 27-29.5 27 0ZM34.5 0L33 0 33-29.5 34.5-29.5 34.5 0ZM37.5 0L36 0 36-29.5 37.5-29.5 37.5 0ZM43.5 0L39 0 39-29.5 43.5-29.5 43.5 0ZM49.5 0L45 0 45-29.5 49.5-29.5 49.5 0ZM34.9 10.75L34.9 9.5 41.6 9.5 41.6 10.75 34.9 10.75ZM52.5 0L51 0 51-29.5 52.5-29.5 52.5 0ZM55.5 0L54 0 54-29.5 55.5-29.5 55.5 0ZM61.5 0L57 0 57-29.5 61.5-29.5 61.5 0ZM69 0L67.5 0 67.5-29.5 69-29.5 69 0ZM75 0L70.5 0 70.5-29.5 75-29.5 75 0ZM60.1 15.95L60.1 4.35 62.8 4.35Q64.25 4.35 65.05 4.75L65.05 4.75Q65.9 5.15 66.5 5.95L66.5 5.95Q67.65 7.45 67.65 10.2L67.65 10.2Q67.55 13.05 66.34 14.5L66.34 14.5Q65.15 16 62.6 15.95L62.6 15.95 60.1 15.95ZM61.35 14.95L62.5 14.95Q66.34 14.95 66.34 10.3L66.34 10.3Q66.34 7.95 65.5 6.7L65.5 6.7Q64.59 5.45 62.7 5.45L62.7 5.45 61.35 5.45 61.35 14.95ZM80.99 0L76.49 0 76.49-29.5 80.99-29.5 80.99 0ZM88.49 0L86.99 0 86.99-29.5 88.49-29.5 88.49 0ZM94.49 0L89.99 0 89.99-29.5 94.49-29.5 94.49 0ZM97.49 0L95.99 0 95.99-29.5 97.49-29.5 97.49 0ZM100.49 0L98.99 0 98.99-29.5 100.49-29.5 100.49 0ZM88.69 15.95L88.69 11.4 85.09 4.35 86.59 4.35 89.44 10 91.99 4.35 93.39 4.35 90.09 11.4 90.09 15.95 88.69 15.95ZM103.49 0L101.99 0 101.99-29.5 103.49-29.5 103.49 0ZM106.49 0L104.99 0 104.99-29.5 106.49-29.5 106.49 0ZM112.49 0L107.99 0 107.99-29.5 112.49-29.5 112.49 0ZM115.49 0L113.99 0 113.99-29.5 115.49-29.5 115.49 0ZM125.99 0L121.49 0 121.49-29.5 125.99-29.5 125.99 0ZM111.04 15.95L111.04 4.35 112.29 4.35 117.14 12.95 117.14 4.35 118.59 4.35 118.59 4.5Q118.44 4.6 118.44 4.75L118.44 4.75Q118.39 4.85 118.39 5.2L118.39 5.2 118.39 15.95 117.39 15.95 112.24 6.85 112.24 15.95 111.04 15.95ZM131.99 0L127.49 0 127.49-29.5 131.99-29.5 131.99 0ZM134.99 0L133.49 0 133.49-29.5 134.99-29.5 134.99 0ZM137.99 0L136.49 0 136.49-29.5 137.99-29.5 137.99 0ZM145.49 0L143.99 0 143.99-29.5 145.49-29.5 145.49 0ZM151.49 0L146.99 0 146.99-29.5 151.49-29.5 151.49 0ZM143.24 15.95L142.09 12.55 138.34 12.55 137.19 15.95 135.89 15.95 140.14 4.15 140.29 4.15 144.59 15.95 143.24 15.95ZM138.69 11.55L141.74 11.55 140.24 7.15 138.69 11.55ZM157.49 0L152.99 0 152.99-29.5 157.49-29.5 157.49 0ZM163.49 0L158.99 0 158.99-29.5 163.49-29.5 163.49 0ZM166.49 0L164.99 0 164.99-29.5 166.49-29.5 166.49 0ZM169.49 0L167.99 0 167.99-29.5 169.49-29.5 169.49 0ZM176.99 0L175.49 0 175.49-29.5 176.99-29.5 176.99 0ZM161.84 15.95L161.84 4.35 162.89 4.35 165.74 10.05 168.64 4.35 169.64 4.35 169.64 15.95 168.39 15.95 168.39 7.2 165.89 11.9 165.39 11.9 163.04 7.25 163.04 15.95 161.84 15.95ZM182.98 0L178.48 0 178.48-29.5 182.98-29.5 182.98 0ZM185.98 0L184.48 0 184.48-29.5 185.98-29.5 185.98 0ZM191.98 0L187.48 0 187.48-29.5 191.98-29.5 191.98 0ZM194.98 0L193.48 0 193.48-29.5 194.98-29.5 194.98 0ZM202.48 0L200.98 0 200.98-29.5 202.48-29.5 202.48 0ZM191.23 16.15L191.23 16.15Q189.23 16.15 188.18 14.6L188.18 14.6Q187.08 13.05 187.08 10.2L187.08 10.2Q187.08 7.45 188.18 5.85L188.18 5.85Q189.28 4.3 191.23 4.3L191.23 4.3Q193.18 4.3 194.28 5.85L194.28 5.85Q195.38 7.45 195.38 10.2L195.38 10.2Q195.38 13.05 194.28 14.6L194.28 14.6Q193.23 16.15 191.23 16.15ZM191.23 15L191.23 15Q192.58 15 193.28 13.8L193.28 13.8Q194.03 12.55 194.03 10.2L194.03 10.2Q194.03 8 193.28 6.7L193.28 6.7Q192.53 5.45 191.23 5.45L191.23 5.45Q189.93 5.45 189.18 6.7L189.18 6.7Q188.43 8 188.43 10.2L188.43 10.2Q188.43 12.55 189.13 13.8L189.13 13.8Q189.88 15 191.23 15Z" opacity="1" transform="matrix(1,0,0,1,0,0)" fill="#000000" class="wordmark-text-0" data-fill-palette-color="primary" id="text-0"></path></svg></g></svg></g></svg></g></svg></g></svg></g></svg></g></svg></g><path d="M194.97 90.049L194.97 30.443 8.656 30.443 8.656 216.757 194.97 216.757 194.97 157.151 190.001 157.151 190.001 211.788 13.625 211.788 13.625 35.412 190.001 35.412 190.001 90.049Z" fill="#000000" stroke="transparent" data-fill-palette-color="primary"></path></svg></g><defs></defs></svg><rect width="395.52" height="247.2" fill="none" stroke="none" visibility="hidden"></rect></g></svg></g></svg>